<?xml version="1.0" encoding="iso-8859-1"?>
<!-- Generator: Adobe Illustrator 19.0.0, SVG Export Plug-In . SVG Version: 6.00 Build 0)  -->
<svg version="1.1" id="Layer_1" xmlns="http://www.w3.org/2000/svg" xmlns:xlink="http://www.w3.org/1999/xlink" x="0px" y="0px"
	 viewBox="0 0 512 512" style="enable-background:new 0 0 512 512;" xml:space="preserve">
<g>
	<g>
		<path d="M338.226,73.301H173.778c-5.28,0-9.561,4.281-9.561,9.561c0,5.28,4.281,9.561,9.561,9.561h164.449
			c5.28,0,9.561-4.281,9.561-9.561C347.787,77.582,343.506,73.301,338.226,73.301z"/>
	</g>
</g>
<g>
	<g>
		<path d="M338.226,379.717h-90.443c-5.28,0-9.561,4.281-9.561,9.561s4.281,9.561,9.561,9.561h90.443
			c5.28,0,9.561-4.279,9.561-9.561C347.787,383.998,343.506,379.717,338.226,379.717z"/>
	</g>
</g>
<g>
	<g>
		<path d="M215.913,379.717h-42.136c-5.28,0-9.561,4.281-9.561,9.561s4.281,9.561,9.561,9.561h42.136
			c5.28,0,9.561-4.279,9.561-9.561C225.474,383.998,221.194,379.717,215.913,379.717z"/>
	</g>
</g>
<g>
	<g>
		<path d="M293.676,431.984h-75.349c-5.28,0-9.561,4.281-9.561,9.561c0,5.28,4.281,9.561,9.561,9.561h75.349
			c5.28,0,9.561-4.281,9.561-9.561C303.237,436.264,298.956,431.984,293.676,431.984z"/>
	</g>
</g>
<g>
	<g>
		<path d="M368.889,148.514H210.814c-5.28,0-9.561,4.281-9.561,9.561s4.281,9.561,9.561,9.561h158.075
			c5.28,0,9.561-4.281,9.561-9.561S374.169,148.514,368.889,148.514z"/>
	</g>
</g>
<g>
	<g>
		<path d="M178.944,148.514h-35.831c-5.28,0-9.561,4.281-9.561,9.561s4.281,9.561,9.561,9.561h35.831
			c5.28,0,9.561-4.281,9.561-9.561S184.225,148.514,178.944,148.514z"/>
	</g>
</g>
<g>
	<g>
		<path d="M368.889,253.047h-12.748c-5.28,0-9.561,4.281-9.561,9.561s4.281,9.561,9.561,9.561h12.748
			c5.28,0,9.561-4.281,9.561-9.561S374.169,253.047,368.889,253.047z"/>
	</g>
</g>
<g>
	<g>
		<path d="M324.271,253.047H143.114c-5.28,0-9.561,4.281-9.561,9.561s4.281,9.561,9.561,9.561h181.157
			c5.28,0,9.561-4.281,9.561-9.561S329.551,253.047,324.271,253.047z"/>
	</g>
</g>
<g>
	<g>
		<path d="M368.889,200.78H143.114c-5.28,0-9.561,4.281-9.561,9.561c0,5.28,4.281,9.561,9.561,9.561h225.775
			c5.28,0,9.561-4.281,9.561-9.561C378.45,205.061,374.169,200.78,368.889,200.78z"/>
	</g>
</g>
<g>
	<g>
		<path d="M368.889,305.314H143.114c-5.28,0-9.561,4.281-9.561,9.561s4.281,9.561,9.561,9.561h225.775
			c5.28,0,9.561-4.281,9.561-9.561S374.169,305.314,368.889,305.314z"/>
	</g>
</g>
<g>
	<g>
		<path d="M436.695,69.476c5.28,0,9.561-4.281,9.561-9.561V9.561C446.255,4.281,441.975,0,436.694,0
			c-5.28,0-9.561,4.281-9.561,9.561v3.603h-10.994V9.561c0-5.28-4.281-9.561-9.561-9.561s-9.561,4.281-9.561,9.561v3.603h-10.994
			V9.561c0-5.28-4.281-9.561-9.561-9.561s-9.561,4.281-9.561,9.561v3.603h-10.994V9.561c0-5.28-4.281-9.561-9.561-9.561
			c-5.28,0-9.561,4.281-9.561,9.561v3.603h-10.994V9.561c0-5.28-4.281-9.561-9.561-9.561s-9.561,4.281-9.561,9.561v3.603h-10.994
			V9.561c0-5.28-4.281-9.561-9.561-9.561s-9.561,4.281-9.561,9.561v3.603H265.56V9.561c0-5.28-4.281-9.561-9.561-9.561
			c-5.28,0-9.561,4.281-9.561,9.561v3.603h-10.994V9.561c0-5.28-4.281-9.561-9.561-9.561s-9.561,4.281-9.561,9.561v3.603h-10.994
			V9.561c0-5.28-4.281-9.561-9.561-9.561s-9.561,4.281-9.561,9.561v3.603h-10.994V9.561c0-5.28-4.281-9.561-9.561-9.561
			c-5.28,0-9.561,4.281-9.561,9.561v3.603h-10.994V9.561c0-5.28-4.281-9.561-9.561-9.561c-5.28,0-9.561,4.281-9.561,9.561v3.603
			h-10.994V9.561c0-5.28-4.281-9.561-9.561-9.561S95.86,4.281,95.86,9.561v3.603H84.866V9.561c0-5.28-4.281-9.561-9.561-9.561
			s-9.561,4.281-9.561,9.561v492.878c0,5.28,4.281,9.561,9.561,9.561s9.561-4.281,9.561-9.561v-3.603H95.86v3.603
			c0,5.28,4.281,9.561,9.561,9.561s9.561-4.281,9.561-9.561v-3.603h10.994v3.603c0,5.28,4.281,9.561,9.561,9.561
			c5.28,0,9.561-4.281,9.561-9.561v-3.603h10.994v3.603c0,5.28,4.281,9.561,9.561,9.561c5.28,0,9.561-4.281,9.561-9.561v-3.603
			h10.994v3.603c0,5.28,4.281,9.561,9.561,9.561s9.561-4.281,9.561-9.561v-3.603h10.994v3.603c0,5.28,4.281,9.561,9.561,9.561
			s9.561-4.281,9.561-9.561v-3.603h10.994v3.603c0,5.28,4.281,9.561,9.561,9.561c5.28,0,9.561-4.281,9.561-9.561v-3.603h10.994
			v3.603c0,5.28,4.281,9.561,9.561,9.561s9.561-4.281,9.561-9.561v-3.603h10.994v3.603c0,5.28,4.281,9.561,9.561,9.561
			s9.561-4.281,9.561-9.561v-3.603h10.994v3.603c0,5.28,4.281,9.561,9.561,9.561c5.28,0,9.561-4.281,9.561-9.561v-3.603h10.994
			v3.603c0,5.28,4.281,9.561,9.561,9.561s9.561-4.281,9.561-9.561v-3.603h10.994v3.603c0,5.28,4.281,9.561,9.561,9.561
			s9.561-4.281,9.561-9.561v-3.603h10.994v3.603c0,5.28,4.281,9.561,9.561,9.561c5.28,0,9.561-4.281,9.561-9.561V91.785
			c0-5.28-4.281-9.561-9.561-9.561c-5.28,0-9.561,4.281-9.561,9.561v387.929H84.869V32.285h342.265v27.63
			C427.134,65.196,431.415,69.476,436.695,69.476z"/>
	</g>
</g>
<g>
</g>
<g>
</g>
<g>
</g>
<g>
</g>
<g>
</g>
<g>
</g>
<g>
</g>
<g>
</g>
<g>
</g>
<g>
</g>
<g>
</g>
<g>
</g>
<g>
</g>
<g>
</g>
<g>
</g>
</svg>
